<?xml version="1.0" standalone="no"?>
<!DOCTYPE svg PUBLIC "-//W3C//DTD SVG 20010904//EN"
 "http://www.w3.org/TR/2001/REC-SVG-20010904/DTD/svg10.dtd">
<svg version="1.0" xmlns="http://www.w3.org/2000/svg"
 width="1024.000000pt" height="1024.000000pt" viewBox="0 0 1024.000000 1024.000000"
 preserveAspectRatio="xMidYMid meet">

<g transform="translate(0.000000,1024.000000) scale(0.100000,-0.100000)"
fill="#000000" stroke="none">
<path d="M0 5120 l0 -5120 5120 0 5120 0 0 5120 0 5120 -5120 0 -5120 0 0
-5120z m5440 3279 c994 -103 1905 -663 2467 -1515 257 -391 436 -890 500
-1395 23 -187 23 -644 0 -821 -100 -754 -413 -1402 -927 -1918 -271 -273 -501
-439 -863 -624 -338 -173 -672 -276 -1077 -333 -158 -22 -640 -25 -800 -5
-409 51 -824 182 -1153 364 -120 66 -261 154 -276 171 -9 12 27 51 193 211
113 108 208 196 211 196 4 0 19 -9 34 -19 34 -25 251 -133 321 -161 509 -203
1075 -251 1635 -139 469 95 918 322 1259 639 489 453 788 1036 871 1698 82
644 -65 1302 -405 1821 -281 429 -664 769 -1115 991 -184 90 -305 137 -484
186 -612 168 -1317 108 -1877 -160 l-131 -63 -94 91 c-52 50 -148 142 -214
204 l-119 113 29 24 c79 63 384 204 610 281 289 100 522 143 945 178 67 6 351
-4 460 -15z m-1951 -1262 c58 -57 383 -373 721 -702 691 -673 736 -717 1120
-1086 151 -145 376 -361 499 -479 122 -118 229 -219 237 -223 12 -7 14 144 14
1048 l0 1055 274 0 274 0 6 -22 c8 -32 7 -3688 -1 -3688 -4 0 -52 44 -107 97
-218 210 -420 406 -616 598 -113 110 -333 324 -490 475 -283 273 -445 430
-840 816 -113 110 -245 239 -295 286 l-90 87 -3 -647 -2 -647 -277 3 c-153 2
-280 6 -283 8 -3 3 -6 416 -8 917 l-2 912 -243 241 c-133 132 -396 391 -585
576 l-342 335 66 72 66 71 400 0 401 0 106 -103z m2081 -172 l0 -275 -412 0
-413 1 -280 274 -280 274 693 1 692 0 0 -275z m0 -970 c0 -74 -1 -135 -3 -135
-1 0 -63 61 -137 135 l-135 135 138 0 137 0 0 -135z m-3150 -585 c0 -53 -4
-69 -16 -74 -9 -3 -59 -3 -113 0 -54 4 -123 4 -154 0 l-57 -7 0 -56 c0 -48 2
-54 18 -48 42 16 111 17 165 1 123 -36 197 -132 197 -255 0 -120 -61 -208
-175 -250 -126 -47 -289 -6 -366 93 -22 28 -22 29 -4 42 10 7 32 26 48 40 24
22 33 25 46 15 108 -78 172 -87 253 -36 124 81 14 261 -130 214 -20 -6 -49
-20 -63 -30 -27 -19 -27 -19 -78 14 l-51 32 0 188 0 188 240 -1 240 -1 0 -69z
m683 37 c64 -32 144 -114 175 -181 72 -152 33 -362 -85 -466 -139 -122 -340
-128 -479 -15 -41 34 -94 103 -94 123 0 4 25 20 56 36 l57 27 41 -39 c76 -73
143 -93 228 -68 161 46 219 240 115 378 -60 80 -178 112 -263 72 -34 -16 -97
-79 -106 -105 -4 -12 -15 -11 -62 5 -32 11 -60 25 -63 32 -7 19 23 79 62 123
75 83 150 112 276 108 69 -2 96 -8 142 -30z m2397 -2136 l285 -280 -1636 -1
-1637 0 -71 94 c-116 155 -311 447 -311 468 0 2 694 2 1542 1 l1543 -2 285
-280z"/>
</g>
</svg>
